<?xml version="1.0" encoding="UTF-8"?>
<svg width="128" height="128" version="1.1" viewBox="0 0 128 128" xmlns="http://www.w3.org/2000/svg">
  <!-- Background -->
  <rect width="128" height="128" fill="#3584e4" rx="16" ry="16"/>

  <!-- Play button triangle -->
  <path d="m42 32 48 32-48 32z" fill="#ffffff" opacity="0.9"/>

  <!-- Chromecast waves -->
  <g fill="none" stroke="#ffffff" stroke-width="3" stroke-linecap="round" opacity="0.8">
    <path d="m 24,96 a 40,40 0 0 1 0,-56"/>
    <path d="m 32,88 a 28,28 0 0 1 0,-40"/>
    <path d="m 40,80 a 16,16 0 0 1 0,-24"/>
  </g>

  <!-- Screen rectangle (Chromecast TV) -->
  <rect x="82" y="88" width="32" height="24" fill="#ffffff" rx="2" ry="2" opacity="0.9"/>
  <rect x="86" y="92" width="24" height="16" fill="#3584e4" rx="1" ry="1"/>

  <!-- TV stand -->
  <rect x="96" y="112" width="4" height="6" fill="#ffffff" opacity="0.9"/>
  <rect x="92" y="117" width="12" height="2" fill="#ffffff" opacity="0.9" rx="1"/>
</svg>
